<mxfile host="app.diagrams.net" modified="2024-01-17T08:07:47.615Z" agent="Mozilla/5.0 (Windows NT 10.0; Win64; x64) AppleWebKit/537.36 (KHTML, like Gecko) Chrome/120.0.0.0 Safari/537.36" etag="NyG8UkZ0TGhl8gd7rHBX" version="22.1.18" type="github">
  <diagram name="第 1 页" id="VFCjEm5W6MaqiMix1aKl">
    <mxGraphModel dx="1434" dy="780" grid="1" gridSize="10" guides="1" tooltips="1" connect="1" arrows="1" fold="1" page="1" pageScale="1" pageWidth="827" pageHeight="1169" math="0" shadow="0">
      <root>
        <mxCell id="0" />
        <mxCell id="1" parent="0" />
        <mxCell id="O1jKtoPmyAMp938oBS-_-8" value="Website&amp;nbsp; backend" style="outlineConnect=0;gradientColor=none;html=1;whiteSpace=wrap;fontSize=12;fontStyle=0;strokeColor=#FF9900;fillColor=none;verticalAlign=top;align=center;fontColor=#FF9900;dashed=0;spacingTop=3;" parent="1" vertex="1">
          <mxGeometry x="241" y="90" width="177" height="470" as="geometry" />
        </mxCell>
        <mxCell id="O1jKtoPmyAMp938oBS-_-39" value="Login page" style="outlineConnect=0;gradientColor=none;html=1;whiteSpace=wrap;fontSize=12;fontStyle=0;strokeColor=#FF9900;fillColor=none;verticalAlign=top;align=center;fontColor=#FF9900;dashed=0;spacingTop=3;" parent="1" vertex="1">
          <mxGeometry x="29" y="90" width="130" height="230" as="geometry" />
        </mxCell>
        <mxCell id="O1jKtoPmyAMp938oBS-_-44" style="edgeStyle=orthogonalEdgeStyle;rounded=0;orthogonalLoop=1;jettySize=auto;html=1;" parent="1" edge="1">
          <mxGeometry relative="1" as="geometry">
            <mxPoint x="250" y="149.5" as="targetPoint" />
            <mxPoint x="160" y="149.5" as="sourcePoint" />
          </mxGeometry>
        </mxCell>
        <mxCell id="O1jKtoPmyAMp938oBS-_-2" value="Admin&lt;br&gt;" style="sketch=0;outlineConnect=0;fontColor=#232F3E;gradientColor=none;strokeColor=#232F3E;fillColor=#ffffff;dashed=0;verticalLabelPosition=bottom;verticalAlign=top;align=center;html=1;fontSize=12;fontStyle=0;aspect=fixed;shape=mxgraph.aws4.resourceIcon;resIcon=mxgraph.aws4.user;" parent="1" vertex="1">
          <mxGeometry x="109" y="125" width="50" height="50" as="geometry" />
        </mxCell>
        <mxCell id="O1jKtoPmyAMp938oBS-_-15" value="Database&lt;br&gt;" style="sketch=0;outlineConnect=0;fontColor=#232F3E;gradientColor=none;strokeColor=#232F3E;fillColor=#ffffff;dashed=0;verticalLabelPosition=bottom;verticalAlign=top;align=center;html=1;fontSize=12;fontStyle=0;aspect=fixed;shape=mxgraph.aws4.resourceIcon;resIcon=mxgraph.aws4.container_1;" parent="1" vertex="1">
          <mxGeometry x="334" y="435" width="40" height="40" as="geometry" />
        </mxCell>
        <mxCell id="O1jKtoPmyAMp938oBS-_-17" value="Face Detect" style="sketch=0;outlineConnect=0;fontColor=#232F3E;gradientColor=none;strokeColor=#232F3E;fillColor=#ffffff;dashed=0;verticalLabelPosition=bottom;verticalAlign=top;align=center;html=1;fontSize=12;fontStyle=0;aspect=fixed;shape=mxgraph.aws4.resourceIcon;resIcon=mxgraph.aws4.container_1;" parent="1" vertex="1">
          <mxGeometry x="334" y="295" width="40" height="40" as="geometry" />
        </mxCell>
        <mxCell id="O1jKtoPmyAMp938oBS-_-25" style="edgeStyle=orthogonalEdgeStyle;rounded=0;orthogonalLoop=1;jettySize=auto;html=1;exitX=0.5;exitY=1;exitDx=0;exitDy=0;" parent="1" edge="1">
          <mxGeometry relative="1" as="geometry">
            <mxPoint x="307.75" y="157.5" as="sourcePoint" />
            <mxPoint x="307.75" y="157.5" as="targetPoint" />
          </mxGeometry>
        </mxCell>
        <mxCell id="O1jKtoPmyAMp938oBS-_-31" value="Amazon DynamoDB" style="sketch=0;outlineConnect=0;fontColor=#232F3E;gradientColor=none;strokeColor=#ffffff;fillColor=#232F3E;dashed=0;verticalLabelPosition=middle;verticalAlign=bottom;align=center;html=1;whiteSpace=wrap;fontSize=10;fontStyle=1;spacing=3;shape=mxgraph.aws4.productIcon;prIcon=mxgraph.aws4.dynamodb;" parent="1" vertex="1">
          <mxGeometry x="957" y="430" width="50" height="90" as="geometry" />
        </mxCell>
        <mxCell id="O1jKtoPmyAMp938oBS-_-34" value="Retrun data" style="text;html=1;strokeColor=none;fillColor=none;align=center;verticalAlign=middle;whiteSpace=wrap;rounded=0;" parent="1" vertex="1">
          <mxGeometry x="847" y="470" width="70" height="30" as="geometry" />
        </mxCell>
        <mxCell id="O1jKtoPmyAMp938oBS-_-35" value="" style="edgeStyle=orthogonalEdgeStyle;html=1;endArrow=openThin;elbow=vertical;startArrow=none;endFill=0;strokeColor=#545B64;rounded=0;entryX=0;entryY=0.222;entryDx=0;entryDy=0;entryPerimeter=0;" parent="1" edge="1">
          <mxGeometry width="100" relative="1" as="geometry">
            <mxPoint x="797" y="449.52" as="sourcePoint" />
            <mxPoint x="957" y="449.5" as="targetPoint" />
          </mxGeometry>
        </mxCell>
        <mxCell id="O1jKtoPmyAMp938oBS-_-36" value="Create table、load data" style="text;html=1;strokeColor=none;fillColor=none;align=center;verticalAlign=middle;whiteSpace=wrap;rounded=0;" parent="1" vertex="1">
          <mxGeometry x="807" y="420" width="140" height="30" as="geometry" />
        </mxCell>
        <mxCell id="O1jKtoPmyAMp938oBS-_-37" value="Amazon S3" style="sketch=0;outlineConnect=0;fontColor=#232F3E;gradientColor=none;strokeColor=#ffffff;fillColor=#232F3E;dashed=0;verticalLabelPosition=middle;verticalAlign=bottom;align=center;html=1;whiteSpace=wrap;fontSize=10;fontStyle=1;spacing=3;shape=mxgraph.aws4.productIcon;prIcon=mxgraph.aws4.s3;" parent="1" vertex="1">
          <mxGeometry x="181" width="49" height="80" as="geometry" />
        </mxCell>
        <mxCell id="O1jKtoPmyAMp938oBS-_-38" value="Hosts website backend&amp;nbsp; HTML、CSS and Javascript&amp;nbsp;&amp;nbsp;" style="text;html=1;strokeColor=none;fillColor=none;align=left;verticalAlign=middle;whiteSpace=wrap;rounded=0;" parent="1" vertex="1">
          <mxGeometry x="238" width="201" height="30" as="geometry" />
        </mxCell>
        <mxCell id="O1jKtoPmyAMp938oBS-_-40" value="User" style="sketch=0;outlineConnect=0;fontColor=#232F3E;gradientColor=none;strokeColor=#232F3E;fillColor=#ffffff;dashed=0;verticalLabelPosition=bottom;verticalAlign=top;align=center;html=1;fontSize=12;fontStyle=0;aspect=fixed;shape=mxgraph.aws4.resourceIcon;resIcon=mxgraph.aws4.user;" parent="1" vertex="1">
          <mxGeometry x="109" y="225" width="50" height="50" as="geometry" />
        </mxCell>
        <mxCell id="O1jKtoPmyAMp938oBS-_-45" value="Admin login" style="text;html=1;strokeColor=none;fillColor=none;align=center;verticalAlign=middle;whiteSpace=wrap;rounded=0;" parent="1" vertex="1">
          <mxGeometry x="170" y="125" width="71" height="30" as="geometry" />
        </mxCell>
        <mxCell id="O1jKtoPmyAMp938oBS-_-46" value="要正規化" style="text;html=1;strokeColor=none;fillColor=none;align=center;verticalAlign=middle;whiteSpace=wrap;rounded=0;" parent="1" vertex="1">
          <mxGeometry x="952" y="400" width="60" height="30" as="geometry" />
        </mxCell>
        <mxCell id="O1jKtoPmyAMp938oBS-_-47" value="Amazon Rekognition" style="sketch=0;outlineConnect=0;fontColor=#232F3E;gradientColor=none;strokeColor=#ffffff;fillColor=#232F3E;dashed=0;verticalLabelPosition=middle;verticalAlign=bottom;align=center;html=1;whiteSpace=wrap;fontSize=10;fontStyle=1;spacing=3;shape=mxgraph.aws4.productIcon;prIcon=mxgraph.aws4.rekognition;" parent="1" vertex="1">
          <mxGeometry x="669.25" y="285" width="50" height="80" as="geometry" />
        </mxCell>
        <mxCell id="a6JBxLxwtquYG9cKJR-4-1" value="AWS Lambda" style="sketch=0;outlineConnect=0;fontColor=#232F3E;gradientColor=none;strokeColor=#ffffff;fillColor=#232F3E;dashed=0;verticalLabelPosition=middle;verticalAlign=bottom;align=center;html=1;whiteSpace=wrap;fontSize=10;fontStyle=1;spacing=3;shape=mxgraph.aws4.productIcon;prIcon=mxgraph.aws4.lambda;" parent="1" vertex="1">
          <mxGeometry x="747" y="430" width="50" height="65" as="geometry" />
        </mxCell>
        <mxCell id="a6JBxLxwtquYG9cKJR-4-6" value="Amazon API Gateway" style="sketch=0;outlineConnect=0;fontColor=#232F3E;gradientColor=none;strokeColor=#ffffff;fillColor=#232F3E;dashed=0;verticalLabelPosition=middle;verticalAlign=bottom;align=center;html=1;whiteSpace=wrap;fontSize=10;fontStyle=1;spacing=3;shape=mxgraph.aws4.productIcon;prIcon=mxgraph.aws4.api_gateway;" parent="1" vertex="1">
          <mxGeometry x="650" y="430" width="50" height="90" as="geometry" />
        </mxCell>
        <mxCell id="a6JBxLxwtquYG9cKJR-4-8" value="" style="edgeStyle=orthogonalEdgeStyle;html=1;endArrow=openThin;elbow=vertical;startArrow=none;endFill=0;strokeColor=#545B64;rounded=0;" parent="1" source="O1jKtoPmyAMp938oBS-_-15" edge="1">
          <mxGeometry width="100" relative="1" as="geometry">
            <mxPoint x="414" y="455" as="sourcePoint" />
            <mxPoint x="650" y="455" as="targetPoint" />
          </mxGeometry>
        </mxCell>
        <mxCell id="a6JBxLxwtquYG9cKJR-4-14" value="" style="edgeStyle=orthogonalEdgeStyle;html=1;endArrow=none;elbow=vertical;startArrow=openThin;startFill=0;strokeColor=#545B64;rounded=0;entryX=0;entryY=0.444;entryDx=0;entryDy=0;entryPerimeter=0;" parent="1" target="O1jKtoPmyAMp938oBS-_-31" edge="1">
          <mxGeometry width="100" relative="1" as="geometry">
            <mxPoint x="797" y="469" as="sourcePoint" />
            <mxPoint x="897" y="469" as="targetPoint" />
          </mxGeometry>
        </mxCell>
        <mxCell id="a6JBxLxwtquYG9cKJR-4-15" value="" style="edgeStyle=orthogonalEdgeStyle;html=1;endArrow=openThin;elbow=vertical;startArrow=none;endFill=0;strokeColor=#545B64;rounded=0;" parent="1" edge="1">
          <mxGeometry width="100" relative="1" as="geometry">
            <mxPoint x="700" y="454.5" as="sourcePoint" />
            <mxPoint x="746" y="454.5" as="targetPoint" />
          </mxGeometry>
        </mxCell>
        <mxCell id="a6JBxLxwtquYG9cKJR-4-17" value="Dynamic API calls over HTTPS" style="text;html=1;strokeColor=none;fillColor=none;align=center;verticalAlign=middle;whiteSpace=wrap;rounded=0;" parent="1" vertex="1">
          <mxGeometry x="427" y="430" width="193" height="30" as="geometry" />
        </mxCell>
        <mxCell id="a6JBxLxwtquYG9cKJR-4-18" style="edgeStyle=orthogonalEdgeStyle;rounded=0;orthogonalLoop=1;jettySize=auto;html=1;" parent="1" source="O1jKtoPmyAMp938oBS-_-37" edge="1">
          <mxGeometry relative="1" as="geometry">
            <mxPoint x="380" y="90" as="targetPoint" />
            <Array as="points">
              <mxPoint x="380" y="30" />
            </Array>
          </mxGeometry>
        </mxCell>
        <mxCell id="pPQGrUG8o8pBh9T2TDlA-6" style="edgeStyle=orthogonalEdgeStyle;rounded=0;orthogonalLoop=1;jettySize=auto;html=1;" edge="1" parent="1" source="a6JBxLxwtquYG9cKJR-4-19">
          <mxGeometry relative="1" as="geometry">
            <mxPoint x="520" y="280" as="targetPoint" />
            <Array as="points">
              <mxPoint x="765" y="233" />
              <mxPoint x="520" y="233" />
              <mxPoint x="520" y="260" />
            </Array>
          </mxGeometry>
        </mxCell>
        <mxCell id="a6JBxLxwtquYG9cKJR-4-19" value="Amazon S3" style="sketch=0;outlineConnect=0;fontColor=#232F3E;gradientColor=none;strokeColor=#ffffff;fillColor=#232F3E;dashed=0;verticalLabelPosition=middle;verticalAlign=bottom;align=center;html=1;whiteSpace=wrap;fontSize=10;fontStyle=1;spacing=3;shape=mxgraph.aws4.productIcon;prIcon=mxgraph.aws4.s3;" parent="1" vertex="1">
          <mxGeometry x="740" y="125" width="49" height="80" as="geometry" />
        </mxCell>
        <mxCell id="a6JBxLxwtquYG9cKJR-4-21" value="AWS Lambda" style="sketch=0;outlineConnect=0;fontColor=#232F3E;gradientColor=none;strokeColor=#ffffff;fillColor=#232F3E;dashed=0;verticalLabelPosition=middle;verticalAlign=bottom;align=center;html=1;whiteSpace=wrap;fontSize=10;fontStyle=1;spacing=3;shape=mxgraph.aws4.productIcon;prIcon=mxgraph.aws4.lambda;" parent="1" vertex="1">
          <mxGeometry x="489.25" y="125" width="50" height="65" as="geometry" />
        </mxCell>
        <mxCell id="a6JBxLxwtquYG9cKJR-4-24" value="Upload picture、video" style="sketch=0;outlineConnect=0;fontColor=#232F3E;gradientColor=none;strokeColor=#232F3E;fillColor=#ffffff;dashed=0;verticalLabelPosition=bottom;verticalAlign=top;align=center;html=1;fontSize=12;fontStyle=0;aspect=fixed;shape=mxgraph.aws4.resourceIcon;resIcon=mxgraph.aws4.container_1;" parent="1" vertex="1">
          <mxGeometry x="333.25" y="137.5" width="40" height="40" as="geometry" />
        </mxCell>
        <mxCell id="a6JBxLxwtquYG9cKJR-4-30" value="Storage picture、video into S3" style="text;html=1;strokeColor=none;fillColor=none;align=center;verticalAlign=middle;whiteSpace=wrap;rounded=0;" parent="1" vertex="1">
          <mxGeometry x="549.25" y="132.5" width="170" height="30" as="geometry" />
        </mxCell>
        <mxCell id="a6JBxLxwtquYG9cKJR-4-31" value="" style="edgeStyle=orthogonalEdgeStyle;html=1;endArrow=openThin;elbow=vertical;startArrow=none;endFill=0;strokeColor=#545B64;rounded=0;" parent="1" target="a6JBxLxwtquYG9cKJR-4-21" edge="1">
          <mxGeometry width="100" relative="1" as="geometry">
            <mxPoint x="373.25" y="157" as="sourcePoint" />
            <mxPoint x="483.25" y="157" as="targetPoint" />
          </mxGeometry>
        </mxCell>
        <mxCell id="a6JBxLxwtquYG9cKJR-4-32" value="" style="edgeStyle=orthogonalEdgeStyle;html=1;endArrow=openThin;elbow=vertical;startArrow=none;endFill=0;strokeColor=#545B64;rounded=0;" parent="1" edge="1">
          <mxGeometry width="100" relative="1" as="geometry">
            <mxPoint x="539.25" y="157" as="sourcePoint" />
            <mxPoint x="739.25" y="157" as="targetPoint" />
            <Array as="points">
              <mxPoint x="649.25" y="157" />
              <mxPoint x="649.25" y="157" />
            </Array>
          </mxGeometry>
        </mxCell>
        <mxCell id="pPQGrUG8o8pBh9T2TDlA-1" value="AWS Lambda" style="sketch=0;outlineConnect=0;fontColor=#232F3E;gradientColor=none;strokeColor=#ffffff;fillColor=#232F3E;dashed=0;verticalLabelPosition=middle;verticalAlign=bottom;align=center;html=1;whiteSpace=wrap;fontSize=10;fontStyle=1;spacing=3;shape=mxgraph.aws4.productIcon;prIcon=mxgraph.aws4.lambda;" vertex="1" parent="1">
          <mxGeometry x="498.5" y="285" width="50" height="65" as="geometry" />
        </mxCell>
        <mxCell id="pPQGrUG8o8pBh9T2TDlA-9" style="edgeStyle=orthogonalEdgeStyle;rounded=0;orthogonalLoop=1;jettySize=auto;html=1;entryX=0.5;entryY=0;entryDx=0;entryDy=0;" edge="1" parent="1">
          <mxGeometry relative="1" as="geometry">
            <mxPoint x="992" y="395" as="targetPoint" />
            <mxPoint x="900" y="320" as="sourcePoint" />
          </mxGeometry>
        </mxCell>
        <mxCell id="pPQGrUG8o8pBh9T2TDlA-2" value="AWS Lambda" style="sketch=0;outlineConnect=0;fontColor=#232F3E;gradientColor=none;strokeColor=#ffffff;fillColor=#232F3E;dashed=0;verticalLabelPosition=middle;verticalAlign=bottom;align=center;html=1;whiteSpace=wrap;fontSize=10;fontStyle=1;spacing=3;shape=mxgraph.aws4.productIcon;prIcon=mxgraph.aws4.lambda;" vertex="1" parent="1">
          <mxGeometry x="840" y="292.5" width="50" height="65" as="geometry" />
        </mxCell>
        <mxCell id="pPQGrUG8o8pBh9T2TDlA-3" value="" style="edgeStyle=orthogonalEdgeStyle;html=1;endArrow=openThin;elbow=vertical;startArrow=none;endFill=0;strokeColor=#545B64;rounded=0;" edge="1" parent="1">
          <mxGeometry width="100" relative="1" as="geometry">
            <mxPoint x="380" y="314.5" as="sourcePoint" />
            <mxPoint x="495.75" y="314.5" as="targetPoint" />
          </mxGeometry>
        </mxCell>
        <mxCell id="pPQGrUG8o8pBh9T2TDlA-4" value="" style="edgeStyle=orthogonalEdgeStyle;html=1;endArrow=openThin;elbow=vertical;startArrow=none;endFill=0;strokeColor=#545B64;rounded=0;" edge="1" parent="1">
          <mxGeometry width="100" relative="1" as="geometry">
            <mxPoint x="553.5" y="314.5" as="sourcePoint" />
            <mxPoint x="669.25" y="314.5" as="targetPoint" />
          </mxGeometry>
        </mxCell>
        <mxCell id="pPQGrUG8o8pBh9T2TDlA-5" value="" style="edgeStyle=orthogonalEdgeStyle;html=1;endArrow=openThin;elbow=vertical;startArrow=none;endFill=0;strokeColor=#545B64;rounded=0;" edge="1" parent="1">
          <mxGeometry width="100" relative="1" as="geometry">
            <mxPoint x="720" y="314.5" as="sourcePoint" />
            <mxPoint x="835.75" y="314.5" as="targetPoint" />
          </mxGeometry>
        </mxCell>
        <mxCell id="pPQGrUG8o8pBh9T2TDlA-7" value="Trigger" style="text;html=1;strokeColor=none;fillColor=none;align=center;verticalAlign=middle;whiteSpace=wrap;rounded=0;" vertex="1" parent="1">
          <mxGeometry x="590" y="210" width="60" height="30" as="geometry" />
        </mxCell>
        <mxCell id="pPQGrUG8o8pBh9T2TDlA-8" value="人臉辨識" style="text;html=1;strokeColor=none;fillColor=none;align=center;verticalAlign=middle;whiteSpace=wrap;rounded=0;" vertex="1" parent="1">
          <mxGeometry x="560" y="290" width="60" height="30" as="geometry" />
        </mxCell>
      </root>
    </mxGraphModel>
  </diagram>
</mxfile>
